<svg width="471" height="215" viewBox="0 0 471 215" fill="none" xmlns="http://www.w3.org/2000/svg">
<rect x="9.5" y="9.5" width="452" height="196" rx="32.5" stroke="#FFE4F4" stroke-width="19"/>
<rect x="46.5" y="38.5" width="36" height="36" fill="#FFE4F4" stroke="#FFE4F4"/>
<rect x="46.5" y="146.5" width="36" height="36" fill="#FFE4F4" stroke="#FFE4F4"/>
<rect x="46.5" y="89.5" width="74" height="36" fill="#FFE4F4" stroke="#FFE4F4"/>
<rect x="103.5" y="146.5" width="36" height="36" fill="#FFE4F4" stroke="#FFE4F4"/>
<rect x="160.5" y="38.5" width="36" height="36" fill="#FFE4F4" stroke="#FFE4F4"/>
<rect x="138.5" y="89.5" width="36" height="36" fill="#FFE4F4" stroke="#FFE4F4"/>
<rect x="217.5" y="38.5" width="36" height="36" fill="#FFE4F4" stroke="#FFE4F4"/>
<rect x="195.5" y="89.5" width="36" height="36" fill="#FFE4F4" stroke="#FFE4F4"/>
<rect x="274.5" y="38.5" width="36" height="36" fill="#FFE4F4" stroke="#FFE4F4"/>
<rect x="252.5" y="89.5" width="36" height="36" fill="#FFE4F4" stroke="#FFE4F4"/>
<rect x="331.5" y="38.5" width="36" height="36" fill="#FFE4F4" stroke="#FFE4F4"/>
<rect x="331.5" y="146.5" width="36" height="36" fill="#FFE4F4" stroke="#FFE4F4"/>
<rect x="309.5" y="89.5" width="36" height="36" fill="#FFE4F4" stroke="#FFE4F4"/>
<rect x="388.5" y="38.5" width="36" height="36" fill="#FFE4F4" stroke="#FFE4F4"/>
<rect x="388.5" y="146.5" width="36" height="36" fill="#FFE4F4" stroke="#FFE4F4"/>
<rect x="362.5" y="89.5" width="62" height="36" fill="#FFE4F4" stroke="#FFE4F4"/>
<rect x="103.5" y="38.5" width="36" height="36" fill="#FFE4F4" stroke="#FFE4F4"/>
<mask id="path-19-outside-1_7621_603" maskUnits="userSpaceOnUse" x="163" y="142" width="150" height="42" fill="black">
<rect fill="white" x="163" y="142" width="150" height="42"/>
<path d="M164.086 183V151.008H174.086C179.06 151.008 182.849 152.401 185.453 155.188C188.057 157.948 189.359 161.88 189.359 166.984C189.359 168.625 189.216 170.161 188.93 171.594C188.669 173.026 188.174 174.458 187.445 175.891C186.742 177.323 185.831 178.547 184.711 179.562C183.617 180.578 182.159 181.411 180.336 182.062C178.513 182.688 176.43 183 174.086 183H164.086ZM170.57 177.531H173.461C176.508 177.531 178.786 176.698 180.297 175.031C181.807 173.365 182.562 170.682 182.562 166.984C182.562 163.182 181.781 160.487 180.219 158.898C178.656 157.31 176.43 156.516 173.539 156.516H170.57V177.531ZM203.673 170.617H211.72L209.689 163.859C208.882 161.151 208.257 158.977 207.814 157.336H207.58C206.981 159.602 206.369 161.776 205.744 163.859L203.673 170.617ZM192.97 183L204.259 151.008H211.173L222.463 183H215.627L213.361 175.852H202.072L199.806 183H192.97ZM199.689 147.531V143.273H215.783V147.531H199.689ZM234.277 165.344H239.862C243.196 165.344 244.862 163.833 244.862 160.812C244.862 159.51 244.42 158.482 243.534 157.727C242.649 156.971 241.412 156.594 239.823 156.594H234.277V165.344ZM227.792 183V151.008H241.034C244.42 151.008 247.024 151.88 248.847 153.625C250.67 155.37 251.581 157.583 251.581 160.266C251.581 162.453 251.139 164.224 250.253 165.578C249.368 166.906 248.326 167.844 247.128 168.391C248.04 169.12 248.678 169.836 249.042 170.539C249.433 171.242 249.758 172.388 250.019 173.977C250.592 176.893 251.816 179.901 253.691 183H246.425C244.941 180.578 243.873 177.727 243.222 174.445C242.961 173.195 242.597 172.284 242.128 171.711C241.659 171.138 240.93 170.852 239.941 170.852H234.277V183H227.792ZM256.247 156.594V151.008H280.544V156.594H271.637V183H265.192V156.594H256.247ZM292.319 170.617H300.366L298.334 163.859C297.527 161.151 296.902 158.977 296.459 157.336H296.225C295.626 159.602 295.014 161.776 294.389 163.859L292.319 170.617ZM281.616 183L292.905 151.008H299.819L311.108 183H304.272L302.006 175.852H290.717L288.452 183H281.616Z"/>
</mask>
<path d="M164.086 183V151.008H174.086C179.06 151.008 182.849 152.401 185.453 155.188C188.057 157.948 189.359 161.88 189.359 166.984C189.359 168.625 189.216 170.161 188.93 171.594C188.669 173.026 188.174 174.458 187.445 175.891C186.742 177.323 185.831 178.547 184.711 179.562C183.617 180.578 182.159 181.411 180.336 182.062C178.513 182.688 176.43 183 174.086 183H164.086ZM170.57 177.531H173.461C176.508 177.531 178.786 176.698 180.297 175.031C181.807 173.365 182.562 170.682 182.562 166.984C182.562 163.182 181.781 160.487 180.219 158.898C178.656 157.31 176.43 156.516 173.539 156.516H170.57V177.531ZM203.673 170.617H211.72L209.689 163.859C208.882 161.151 208.257 158.977 207.814 157.336H207.58C206.981 159.602 206.369 161.776 205.744 163.859L203.673 170.617ZM192.97 183L204.259 151.008H211.173L222.463 183H215.627L213.361 175.852H202.072L199.806 183H192.97ZM199.689 147.531V143.273H215.783V147.531H199.689ZM234.277 165.344H239.862C243.196 165.344 244.862 163.833 244.862 160.812C244.862 159.51 244.42 158.482 243.534 157.727C242.649 156.971 241.412 156.594 239.823 156.594H234.277V165.344ZM227.792 183V151.008H241.034C244.42 151.008 247.024 151.88 248.847 153.625C250.67 155.37 251.581 157.583 251.581 160.266C251.581 162.453 251.139 164.224 250.253 165.578C249.368 166.906 248.326 167.844 247.128 168.391C248.04 169.12 248.678 169.836 249.042 170.539C249.433 171.242 249.758 172.388 250.019 173.977C250.592 176.893 251.816 179.901 253.691 183H246.425C244.941 180.578 243.873 177.727 243.222 174.445C242.961 173.195 242.597 172.284 242.128 171.711C241.659 171.138 240.93 170.852 239.941 170.852H234.277V183H227.792ZM256.247 156.594V151.008H280.544V156.594H271.637V183H265.192V156.594H256.247ZM292.319 170.617H300.366L298.334 163.859C297.527 161.151 296.902 158.977 296.459 157.336H296.225C295.626 159.602 295.014 161.776 294.389 163.859L292.319 170.617ZM281.616 183L292.905 151.008H299.819L311.108 183H304.272L302.006 175.852H290.717L288.452 183H281.616Z" fill="#FFE4F4"/>
<path d="M164.086 183H163.086V184H164.086V183ZM164.086 151.008V150.008H163.086V151.008H164.086ZM185.453 155.188L184.723 155.87L184.726 155.874L185.453 155.188ZM188.93 171.594L187.949 171.398L187.947 171.406L187.946 171.415L188.93 171.594ZM187.445 175.891L186.554 175.437L186.551 175.443L186.548 175.45L187.445 175.891ZM184.711 179.562L184.039 178.822L184.03 178.83L184.711 179.562ZM180.336 182.062L180.66 183.009L180.672 183.004L180.336 182.062ZM170.57 177.531H169.57V178.531H170.57V177.531ZM180.297 175.031L181.038 175.703L180.297 175.031ZM170.57 156.516V155.516H169.57V156.516H170.57ZM164.086 183H165.086V151.008H164.086H163.086V183H164.086ZM164.086 151.008V152.008H174.086V151.008V150.008H164.086V151.008ZM174.086 151.008V152.008C178.872 152.008 182.361 153.343 184.723 155.87L185.453 155.188L186.184 154.505C183.337 151.459 179.248 150.008 174.086 150.008V151.008ZM185.453 155.188L184.726 155.874C187.102 158.392 188.359 162.045 188.359 166.984H189.359H190.359C190.359 161.715 189.013 157.504 186.181 154.501L185.453 155.188ZM189.359 166.984H188.359C188.359 168.567 188.221 170.037 187.949 171.398L188.93 171.594L189.91 171.79C190.211 170.286 190.359 168.683 190.359 166.984H189.359ZM188.93 171.594L187.946 171.415C187.704 172.742 187.244 174.082 186.554 175.437L187.445 175.891L188.336 176.344C189.105 174.834 189.634 173.31 189.914 171.773L188.93 171.594ZM187.445 175.891L186.548 175.45C185.897 176.775 185.06 177.896 184.039 178.822L184.711 179.562L185.383 180.303C186.601 179.198 187.587 177.871 188.343 176.331L187.445 175.891ZM184.711 179.562L184.03 178.83C183.061 179.73 181.731 180.502 180 181.121L180.336 182.062L180.672 183.004C182.587 182.321 184.174 181.426 185.391 180.295L184.711 179.562ZM180.336 182.062L180.012 181.117C178.313 181.699 176.342 182 174.086 182V183V184C176.517 184 178.713 183.676 180.66 183.008L180.336 182.062ZM174.086 183V182H164.086V183V184H174.086V183ZM170.57 177.531V178.531H173.461V177.531V176.531H170.57V177.531ZM173.461 177.531V178.531C176.686 178.531 179.278 177.645 181.038 175.703L180.297 175.031L179.556 174.36C178.295 175.751 176.33 176.531 173.461 176.531V177.531ZM180.297 175.031L181.038 175.703C182.794 173.765 183.562 170.781 183.562 166.984H182.562H181.562C181.562 170.584 180.821 172.964 179.556 174.36L180.297 175.031ZM182.562 166.984H183.562C183.562 163.093 182.772 160.068 180.932 158.197L180.219 158.898L179.506 159.6C180.791 160.906 181.562 163.272 181.562 166.984H182.562ZM180.219 158.898L180.932 158.197C179.13 156.365 176.614 155.516 173.539 155.516V156.516V157.516C176.245 157.516 178.183 158.254 179.506 159.6L180.219 158.898ZM173.539 156.516V155.516H170.57V156.516V157.516H173.539V156.516ZM170.57 156.516H169.57V177.531H170.57H171.57V156.516H170.57ZM203.673 170.617L202.717 170.324L202.321 171.617H203.673V170.617ZM211.72 170.617V171.617H213.065L212.678 170.329L211.72 170.617ZM209.689 163.859L208.731 164.145L208.731 164.147L209.689 163.859ZM207.814 157.336L208.78 157.075L208.58 156.336H207.814V157.336ZM207.58 157.336V156.336H206.81L206.613 157.08L207.58 157.336ZM205.744 163.859L206.7 164.152L206.702 164.147L205.744 163.859ZM192.97 183L192.027 182.667L191.557 184H192.97V183ZM204.259 151.008V150.008H203.552L203.316 150.675L204.259 151.008ZM211.173 151.008L212.116 150.675L211.881 150.008H211.173V151.008ZM222.463 183V184H223.876L223.406 182.667L222.463 183ZM215.627 183L214.673 183.302L214.894 184H215.627V183ZM213.361 175.852L214.314 175.549L214.093 174.852H213.361V175.852ZM202.072 175.852V174.852H201.34L201.119 175.549L202.072 175.852ZM199.806 183V184H200.538L200.76 183.302L199.806 183ZM199.689 147.531H198.689V148.531H199.689V147.531ZM199.689 143.273V142.273H198.689V143.273H199.689ZM215.783 143.273H216.783V142.273H215.783V143.273ZM215.783 147.531V148.531H216.783V147.531H215.783ZM203.673 170.617V171.617H211.72V170.617V169.617H203.673V170.617ZM211.72 170.617L212.678 170.329L210.647 163.572L209.689 163.859L208.731 164.147L210.763 170.905L211.72 170.617ZM209.689 163.859L210.647 163.574C209.841 160.869 209.219 158.704 208.78 157.075L207.814 157.336L206.849 157.596C207.295 159.249 207.922 161.433 208.731 164.145L209.689 163.859ZM207.814 157.336V156.336H207.58V157.336V158.336H207.814V157.336ZM207.58 157.336L206.613 157.08C206.017 159.336 205.408 161.5 204.786 163.572L205.744 163.859L206.702 164.147C207.33 162.052 207.945 159.867 208.546 157.592L207.58 157.336ZM205.744 163.859L204.788 163.566L202.717 170.324L203.673 170.617L204.63 170.91L206.7 164.152L205.744 163.859ZM192.97 183L193.913 183.333L205.202 151.341L204.259 151.008L203.316 150.675L192.027 182.667L192.97 183ZM204.259 151.008V152.008H211.173V151.008V150.008H204.259V151.008ZM211.173 151.008L210.23 151.341L221.519 183.333L222.463 183L223.406 182.667L212.116 150.675L211.173 151.008ZM222.463 183V182H215.627V183V184H222.463V183ZM215.627 183L216.58 182.698L214.314 175.549L213.361 175.852L212.408 176.154L214.673 183.302L215.627 183ZM213.361 175.852V174.852H202.072V175.852V176.852H213.361V175.852ZM202.072 175.852L201.119 175.549L198.853 182.698L199.806 183L200.76 183.302L203.025 176.154L202.072 175.852ZM199.806 183V182H192.97V183V184H199.806V183ZM199.689 147.531H200.689V143.273H199.689H198.689V147.531H199.689ZM199.689 143.273V144.273H215.783V143.273V142.273H199.689V143.273ZM215.783 143.273H214.783V147.531H215.783H216.783V143.273H215.783ZM215.783 147.531V146.531H199.689V147.531V148.531H215.783V147.531ZM234.277 165.344H233.277V166.344H234.277V165.344ZM234.277 156.594V155.594H233.277V156.594H234.277ZM227.792 183H226.792V184H227.792V183ZM227.792 151.008V150.008H226.792V151.008H227.792ZM250.253 165.578L251.085 166.133L251.09 166.125L250.253 165.578ZM247.128 168.391L246.713 167.481L245.234 168.156L246.503 169.171L247.128 168.391ZM249.042 170.539L248.154 170.999L248.161 171.012L248.168 171.025L249.042 170.539ZM250.019 173.977L249.032 174.138L249.034 174.154L249.038 174.169L250.019 173.977ZM253.691 183V184H255.464L254.546 182.482L253.691 183ZM246.425 183L245.572 183.523L245.865 184H246.425V183ZM243.222 174.445L244.203 174.251L244.201 174.241L243.222 174.445ZM234.277 170.852V169.852H233.277V170.852H234.277ZM234.277 183V184H235.277V183H234.277ZM234.277 165.344V166.344H239.862V165.344V164.344H234.277V165.344ZM239.862 165.344V166.344C241.66 166.344 243.195 165.939 244.284 164.952C245.391 163.948 245.862 162.504 245.862 160.812H244.862H243.862C243.862 162.142 243.5 162.963 242.941 163.47C242.363 163.994 241.398 164.344 239.862 164.344V165.344ZM244.862 160.812H245.862C245.862 159.257 245.32 157.935 244.183 156.966L243.534 157.727L242.885 158.487C243.52 159.029 243.862 159.764 243.862 160.812H244.862ZM243.534 157.727L244.183 156.966C243.06 156.008 241.563 155.594 239.823 155.594V156.594V157.594C241.261 157.594 242.238 157.935 242.885 158.487L243.534 157.727ZM239.823 156.594V155.594H234.277V156.594V157.594H239.823V156.594ZM234.277 156.594H233.277V165.344H234.277H235.277V156.594H234.277ZM227.792 183H228.792V151.008H227.792H226.792V183H227.792ZM227.792 151.008V152.008H241.034V151.008V150.008H227.792V151.008ZM241.034 151.008V152.008C244.252 152.008 246.575 152.835 248.155 154.347L248.847 153.625L249.538 152.903C247.473 150.926 244.587 150.008 241.034 150.008V151.008ZM248.847 153.625L248.155 154.347C249.768 155.891 250.581 157.837 250.581 160.266H251.581H252.581C252.581 157.33 251.572 154.849 249.538 152.903L248.847 153.625ZM251.581 160.266H250.581C250.581 162.325 250.164 163.887 249.416 165.031L250.253 165.578L251.09 166.125C252.113 164.561 252.581 162.581 252.581 160.266H251.581ZM250.253 165.578L249.421 165.023C248.617 166.23 247.709 167.026 246.713 167.481L247.128 168.391L247.543 169.3C248.943 168.661 250.119 167.583 251.085 166.133L250.253 165.578ZM247.128 168.391L246.503 169.171C247.353 169.851 247.877 170.465 248.154 170.999L249.042 170.539L249.93 170.079C249.478 169.207 248.726 168.388 247.753 167.61L247.128 168.391ZM249.042 170.539L248.168 171.025C248.471 171.57 248.775 172.573 249.032 174.138L250.019 173.977L251.006 173.815C250.741 172.203 250.395 170.914 249.916 170.053L249.042 170.539ZM250.019 173.977L249.038 174.169C249.637 177.223 250.912 180.34 252.835 183.518L253.691 183L254.546 182.482C252.719 179.462 251.546 176.564 251 173.784L250.019 173.977ZM253.691 183V182H246.425V183V184H253.691V183ZM246.425 183L247.278 182.477C245.865 180.173 244.835 177.436 244.203 174.251L243.222 174.445L242.241 174.64C242.911 178.017 244.016 180.984 245.572 183.523L246.425 183ZM243.222 174.445L244.201 174.241C243.928 172.933 243.522 171.835 242.902 171.078L242.128 171.711L241.354 172.344C241.672 172.733 241.995 173.458 242.243 174.649L243.222 174.445ZM242.128 171.711L242.902 171.078C242.184 170.2 241.122 169.852 239.941 169.852V170.852V171.852C240.738 171.852 241.134 172.076 241.354 172.344L242.128 171.711ZM239.941 170.852V169.852H234.277V170.852V171.852H239.941V170.852ZM234.277 170.852H233.277V183H234.277H235.277V170.852H234.277ZM234.277 183V182H227.792V183V184H234.277V183ZM256.247 156.594H255.247V157.594H256.247V156.594ZM256.247 151.008V150.008H255.247V151.008H256.247ZM280.544 151.008H281.544V150.008H280.544V151.008ZM280.544 156.594V157.594H281.544V156.594H280.544ZM271.637 156.594V155.594H270.637V156.594H271.637ZM271.637 183V184H272.637V183H271.637ZM265.192 183H264.192V184H265.192V183ZM265.192 156.594H266.192V155.594H265.192V156.594ZM256.247 156.594H257.247V151.008H256.247H255.247V156.594H256.247ZM256.247 151.008V152.008H280.544V151.008V150.008H256.247V151.008ZM280.544 151.008H279.544V156.594H280.544H281.544V151.008H280.544ZM280.544 156.594V155.594H271.637V156.594V157.594H280.544V156.594ZM271.637 156.594H270.637V183H271.637H272.637V156.594H271.637ZM271.637 183V182H265.192V183V184H271.637V183ZM265.192 183H266.192V156.594H265.192H264.192V183H265.192ZM265.192 156.594V155.594H256.247V156.594V157.594H265.192V156.594ZM292.319 170.617L291.363 170.324L290.967 171.617H292.319V170.617ZM300.366 170.617V171.617H301.71L301.323 170.329L300.366 170.617ZM298.334 163.859L297.376 164.145L297.377 164.147L298.334 163.859ZM296.459 157.336L297.425 157.075L297.225 156.336H296.459V157.336ZM296.225 157.336V156.336H295.455L295.258 157.08L296.225 157.336ZM294.389 163.859L295.345 164.152L295.347 164.147L294.389 163.859ZM281.616 183L280.673 182.667L280.202 184H281.616V183ZM292.905 151.008V150.008H292.197L291.962 150.675L292.905 151.008ZM299.819 151.008L300.762 150.675L300.526 150.008H299.819V151.008ZM311.108 183V184H312.521L312.051 182.667L311.108 183ZM304.272 183L303.319 183.302L303.54 184H304.272V183ZM302.006 175.852L302.96 175.549L302.738 174.852H302.006V175.852ZM290.717 175.852V174.852H289.985L289.764 175.549L290.717 175.852ZM288.452 183V184H289.184L289.405 183.302L288.452 183ZM292.319 170.617V171.617H300.366V170.617V169.617H292.319V170.617ZM300.366 170.617L301.323 170.329L299.292 163.572L298.334 163.859L297.377 164.147L299.408 170.905L300.366 170.617ZM298.334 163.859L299.293 163.574C298.487 160.869 297.864 158.704 297.425 157.075L296.459 157.336L295.494 157.596C295.94 159.249 296.568 161.433 297.376 164.145L298.334 163.859ZM296.459 157.336V156.336H296.225V157.336V158.336H296.459V157.336ZM296.225 157.336L295.258 157.08C294.662 159.336 294.053 161.5 293.431 163.572L294.389 163.859L295.347 164.147C295.975 162.052 296.59 159.867 297.192 157.592L296.225 157.336ZM294.389 163.859L293.433 163.566L291.363 170.324L292.319 170.617L293.275 170.91L295.345 164.152L294.389 163.859ZM281.616 183L282.559 183.333L293.848 151.341L292.905 151.008L291.962 150.675L280.673 182.667L281.616 183ZM292.905 151.008V152.008H299.819V151.008V150.008H292.905V151.008ZM299.819 151.008L298.876 151.341L310.165 183.333L311.108 183L312.051 182.667L300.762 150.675L299.819 151.008ZM311.108 183V182H304.272V183V184H311.108V183ZM304.272 183L305.225 182.698L302.96 175.549L302.006 175.852L301.053 176.154L303.319 183.302L304.272 183ZM302.006 175.852V174.852H290.717V175.852V176.852H302.006V175.852ZM290.717 175.852L289.764 175.549L287.498 182.698L288.452 183L289.405 183.302L291.67 176.154L290.717 175.852ZM288.452 183V182H281.616V183V184H288.452V183Z" fill="#FFE4F4" mask="url(#path-19-outside-1_7621_603)"/>
</svg>
